<svg width="16" height="18" viewBox="0 0 16 18" fill="none" xmlns="http://www.w3.org/2000/svg">
<path d="M5.89917 14.8154V15.15C5.89917 16.3095 6.83967 17.25 8.00017 17.25C9.16067 17.25 10.1012 16.3095 10.1012 15.149V14.8145" stroke="#A2A2A7" stroke-width="1.3" stroke-linecap="round" stroke-linejoin="round"/>
<path d="M9.68032 3.27175V2.43025C9.68032 1.50258 8.92866 0.75 8.00007 0.75C7.07149 0.75 6.31982 1.50258 6.31982 2.43025V3.27175" stroke="#A2A2A7" stroke-width="1.3" stroke-linecap="round" stroke-linejoin="round"/>
<path d="M3.01616 7.33896C3.01616 5.04455 4.87608 3.18555 7.16958 3.18555H8.8315C11.1259 3.18555 12.9849 5.04546 12.9849 7.33896V9.90288C12.9849 10.3887 13.1783 10.8553 13.5221 11.199L14.1097 11.7866C14.4534 12.1304 14.6468 12.597 14.6468 13.0828C14.6468 14.0398 13.8713 14.8153 12.9143 14.8153H3.08675C2.12975 14.8153 1.35425 14.0398 1.35425 13.0828C1.35425 12.597 1.54766 12.1304 1.89141 11.7866L2.479 11.199C2.82275 10.8553 3.01616 10.3887 3.01616 9.90288V7.33896Z" stroke="#A2A2A7" stroke-width="1.3" stroke-linecap="round" stroke-linejoin="round"/>
</svg>
